<?xml version="1.0" encoding="UTF-8" standalone="no"?>
<svg
   width="1382.9288"
   zoomAndPan="magnify"
   viewBox="0 0 1037.1967 275.65624"
   height="367.54166"
   preserveAspectRatio="xMidYMid"
   version="1.0"
   id="svg9"
   sodipodi:docname="logo.svg"
   inkscape:version="1.3.2 (091e20e, 2023-11-25)"
   xmlns:inkscape="http://www.inkscape.org/namespaces/inkscape"
   xmlns:sodipodi="http://sodipodi.sourceforge.net/DTD/sodipodi-0.dtd"
   xmlns="http://www.w3.org/2000/svg"
   xmlns:svg="http://www.w3.org/2000/svg">
  <sodipodi:namedview
     id="namedview9"
     pagecolor="#ffffff"
     bordercolor="#000000"
     borderopacity="0.25"
     inkscape:showpageshadow="2"
     inkscape:pageopacity="0.0"
     inkscape:pagecheckerboard="0"
     inkscape:deskcolor="#d1d1d1"
     inkscape:zoom="0.472"
     inkscape:cx="-3.1779661"
     inkscape:cy="152.54237"
     inkscape:window-width="1440"
     inkscape:window-height="847"
     inkscape:window-x="0"
     inkscape:window-y="25"
     inkscape:window-maximized="1"
     inkscape:current-layer="svg9" />
  <defs
     id="defs2">
    <rect
       x="-1002.1186"
       y="78.389832"
       width="904.66101"
       height="455.50848"
       id="rect10" />
    <rect
       x="506.35593"
       y="99.576271"
       width="690.67798"
       height="309.32202"
       id="rect9" />
    <clipPath
       id="e153f0c84a">
      <path
         d="M 136,37.5 H 254 V 214 H 136 Z m 0,0"
         clip-rule="nonzero"
         id="path1" />
    </clipPath>
    <clipPath
       id="730ba612ea">
      <path
         d="M 32,96 H 174 V 306.91797 H 32 Z m 0,0"
         clip-rule="nonzero"
         id="path2" />
    </clipPath>
  </defs>
  <path
     fill="#000000"
     d="m 196.22179,6.667969 c 0,-0.105469 0,-0.210938 0,-0.351563 -0.0352,0.105469 -0.0352,0.210938 0,0.351563 z m 0,0"
     fill-opacity="1"
     fill-rule="nonzero"
     id="path3"
     style="fill:#3e6047;fill-opacity:1" />
  <g
     clip-path="url(#e153f0c84a)"
     id="g4"
     style="fill:#3e6047;fill-opacity:1"
     transform="translate(-29.590714,-37.515625)">
    <path
       fill="#ffffff"
       d="M 195.25,213.94141 C 298.39062,158.50781 234.03125,47.996094 232.125,37.515625 233.74609,83.667969 65.828125,126.22266 170.44531,210.19922 166.74219,205.22266 140.24219,152.61328 216.28125,90.9375 195.42969,111.78906 147.82812,173.92578 195.25,213.94141 Z m 0,0"
       fill-opacity="1"
       fill-rule="nonzero"
       id="path4"
       style="fill:#3e6047;fill-opacity:1" />
  </g>
  <path
     fill="#000000"
     d="m 161.64366,104.30079 c -0.0703,-0.0703 -0.14453,-0.14063 -0.21484,-0.21094 0.14453,0.21094 0.25,0.3164 0.21484,0.21094 z m 0,0"
     fill-opacity="1"
     fill-rule="nonzero"
     id="path5"
     style="fill:#3e6047;fill-opacity:1" />
  <path
     fill="#000000"
     d="m 253.34679,85.246095 c 0.0352,-0.0703 0.0703,-0.14063 0.10547,-0.21094 -0.0352,0.0352 -0.0703,0.10547 -0.10547,0.21094 z m 0,0"
     fill-opacity="1"
     fill-rule="nonzero"
     id="path6"
     style="fill:#3e6047;fill-opacity:1" />
  <path
     fill="#ffffff"
     d="m 314.92882,125.61329 c -19.1875,39.42187 -210.38281,26.6875 -138.85547,139.52734 -1.76953,-6.14453 -7.59375,-66.45313 102.5,-99.55859 -28.99218,11.38281 -111.72656,55.07421 -78.20312,110.07421 C 335.9171,243.27344 312.82726,133.28516 314.92882,125.61329 Z m 0,0"
     fill-opacity="1"
     fill-rule="nonzero"
     id="path7"
     style="fill:#3e6047;fill-opacity:1" />
  <path
     fill="#ffffff"
     d="m 316.42882,118.11329 c 0.0547,-0.1211 0.125,-0.23829 0.17969,-0.36329 -0.0742,0.0742 -0.12891,0.19141 -0.17969,0.36329 z m 0,0"
     fill-opacity="1"
     fill-rule="nonzero"
     id="path8"
     style="fill:#3e6047;fill-opacity:1" />
  <g
     clip-path="url(#730ba612ea)"
     id="g9"
     style="fill:#3e6047;fill-opacity:1"
     transform="translate(-32.590714,-31.515625)">
    <path
       fill="#ffffff"
       d="M 50.78125,96.292969 C 46.695312,91.789062 -19.496094,269.86328 129.08594,306.53125 166.57031,242.90625 59.722656,159.29297 60.414062,156.22266 169.36328,239.19531 153,293.58203 153.04687,295.79687 233.10937,193.79687 49.808594,167.33594 50.78125,96.292969 Z m 0,0"
       fill-opacity="1"
       fill-rule="nonzero"
       id="path9"
       style="fill:#3e6047;fill-opacity:1" />
  </g>
  <text
     xml:space="preserve"
     transform="matrix(0.74999999,0,0,0.74999999,-29.590714,-37.515625)"
     id="text9"
     style="font-size:192px;white-space:pre;shape-inside:url(#rect10);display:inline;fill:#3e6047;fill-opacity:1" />
  <text
     xml:space="preserve"
     style="font-size:87.7788px;fill:#3e6047;stroke-width:0.45718;fill-opacity:1"
     x="341.60965"
     y="139.03609"
     id="text11"><tspan
       sodipodi:role="line"
       id="tspan11"
       style="font-style:normal;font-variant:normal;font-weight:normal;font-stretch:normal;font-family:Tahoma;-inkscape-font-specification:Tahoma;fill:#3e6047;stroke-width:0.45718;fill-opacity:1"
       x="341.60965"
       y="139.03609">Hillary Wadsworth</tspan></text>
  <text
     xml:space="preserve"
     style="font-size:144px;fill:#3e6047;stroke-width:0.75;fill-opacity:1"
     x="-875.4032"
     y="614.14062"
     id="text11-1"><tspan
       sodipodi:role="line"
       id="tspan11-8"
       style="font-style:normal;font-variant:normal;font-weight:normal;font-stretch:normal;font-family:'.Sana PUA';-inkscape-font-specification:'.Sana PUA';stroke-width:0.75;fill:#3e6047;fill-opacity:1"
       x="-875.4032"
       y="614.14062" /></text>
  <text
     xml:space="preserve"
     style="font-style:normal;font-variant:normal;font-weight:normal;font-stretch:normal;font-size:66.8776px;font-family:'.Sana PUA';-inkscape-font-specification:'.Sana PUA';fill:#3e6047;stroke-width:0.696641;fill-opacity:1"
     x="395.29855"
     y="223.58405"
     id="text12"><tspan
       sodipodi:role="line"
       id="tspan12"
       style="font-style:normal;font-variant:normal;font-weight:normal;font-stretch:normal;font-size:66.8776px;font-family:Tahoma;-inkscape-font-specification:Tahoma;fill:#3e6047;stroke-width:0.696641;fill-opacity:1"
       x="395.29855"
       y="223.58405">Counsellor &amp; Coach</tspan></text>
</svg>
