<?xml version="1.0" encoding="UTF-8" standalone="no"?>
<svg
   width="1382.9288"
   zoomAndPan="magnify"
   viewBox="0 0 1037.1967 275.65624"
   height="367.54166"
   preserveAspectRatio="xMidYMid"
   version="1.0"
   id="svg9"
   sodipodi:docname="logo_title_white_path.svg"
   inkscape:version="1.3.2 (091e20e, 2023-11-25)"
   xmlns:inkscape="http://www.inkscape.org/namespaces/inkscape"
   xmlns:sodipodi="http://sodipodi.sourceforge.net/DTD/sodipodi-0.dtd"
   xmlns="http://www.w3.org/2000/svg"
   xmlns:svg="http://www.w3.org/2000/svg">
  <sodipodi:namedview
     id="namedview9"
     pagecolor="#ffffff"
     bordercolor="#000000"
     borderopacity="0.25"
     inkscape:showpageshadow="2"
     inkscape:pageopacity="0.0"
     inkscape:pagecheckerboard="0"
     inkscape:deskcolor="#d1d1d1"
     inkscape:zoom="0.472"
     inkscape:cx="342.16102"
     inkscape:cy="266.94915"
     inkscape:window-width="1440"
     inkscape:window-height="847"
     inkscape:window-x="0"
     inkscape:window-y="25"
     inkscape:window-maximized="1"
     inkscape:current-layer="svg9" />
  <defs
     id="defs2">
    <rect
       x="-1002.1186"
       y="78.389832"
       width="904.66101"
       height="455.50848"
       id="rect10" />
    <rect
       x="506.35593"
       y="99.576271"
       width="690.67798"
       height="309.32202"
       id="rect9" />
    <clipPath
       id="e153f0c84a">
      <path
         d="M 136,37.5 H 254 V 214 H 136 Z m 0,0"
         clip-rule="nonzero"
         id="path1" />
    </clipPath>
    <clipPath
       id="730ba612ea">
      <path
         d="M 32,96 H 174 V 306.91797 H 32 Z m 0,0"
         clip-rule="nonzero"
         id="path2" />
    </clipPath>
  </defs>
  <path
     fill="#000000"
     d="m 196.22179,6.667969 c 0,-0.105469 0,-0.210938 0,-0.351563 -0.0352,0.105469 -0.0352,0.210938 0,0.351563 z m 0,0"
     fill-opacity="1"
     fill-rule="nonzero"
     id="path3"
     style="fill:#ffffff" />
  <g
     clip-path="url(#e153f0c84a)"
     id="g4"
     style="fill:#ffffff"
     transform="translate(-29.590714,-37.515625)">
    <path
       fill="#ffffff"
       d="M 195.25,213.94141 C 298.39062,158.50781 234.03125,47.996094 232.125,37.515625 233.74609,83.667969 65.828125,126.22266 170.44531,210.19922 166.74219,205.22266 140.24219,152.61328 216.28125,90.9375 195.42969,111.78906 147.82812,173.92578 195.25,213.94141 Z m 0,0"
       fill-opacity="1"
       fill-rule="nonzero"
       id="path4"
       style="fill:#ffffff" />
  </g>
  <path
     fill="#000000"
     d="m 161.64366,104.30079 c -0.0703,-0.0703 -0.14453,-0.14063 -0.21484,-0.21094 0.14453,0.21094 0.25,0.3164 0.21484,0.21094 z m 0,0"
     fill-opacity="1"
     fill-rule="nonzero"
     id="path5"
     style="fill:#ffffff" />
  <path
     fill="#000000"
     d="m 253.34679,85.246095 c 0.0352,-0.0703 0.0703,-0.14063 0.10547,-0.21094 -0.0352,0.0352 -0.0703,0.10547 -0.10547,0.21094 z m 0,0"
     fill-opacity="1"
     fill-rule="nonzero"
     id="path6"
     style="fill:#ffffff" />
  <path
     fill="#ffffff"
     d="m 314.92882,125.61329 c -19.1875,39.42187 -210.38281,26.6875 -138.85547,139.52734 -1.76953,-6.14453 -7.59375,-66.45313 102.5,-99.55859 -28.99218,11.38281 -111.72656,55.07421 -78.20312,110.07421 C 335.9171,243.27344 312.82726,133.28516 314.92882,125.61329 Z m 0,0"
     fill-opacity="1"
     fill-rule="nonzero"
     id="path7"
     style="fill:#ffffff" />
  <path
     fill="#ffffff"
     d="m 316.42882,118.11329 c 0.0547,-0.1211 0.125,-0.23829 0.17969,-0.36329 -0.0742,0.0742 -0.12891,0.19141 -0.17969,0.36329 z m 0,0"
     fill-opacity="1"
     fill-rule="nonzero"
     id="path8"
     style="fill:#ffffff" />
  <g
     clip-path="url(#730ba612ea)"
     id="g9"
     style="fill:#ffffff"
     transform="translate(-32.590714,-31.515625)">
    <path
       fill="#ffffff"
       d="M 50.78125,96.292969 C 46.695312,91.789062 -19.496094,269.86328 129.08594,306.53125 166.57031,242.90625 59.722656,159.29297 60.414062,156.22266 169.36328,239.19531 153,293.58203 153.04687,295.79687 233.10937,193.79687 49.808594,167.33594 50.78125,96.292969 Z m 0,0"
       fill-opacity="1"
       fill-rule="nonzero"
       id="path9"
       style="fill:#ffffff" />
  </g>
  <text
     xml:space="preserve"
     transform="matrix(0.74999999,0,0,0.74999999,-29.590714,-37.515625)"
     id="text9"
     style="font-size:192px;white-space:pre;shape-inside:url(#rect10);display:inline;fill:#ff0000" />
  <path
     style="font-size:87.7788px;font-family:Tahoma;-inkscape-font-specification:Tahoma;fill:#ffffff;stroke-width:0.45718"
     d="m 394.41408,139.03609 h -8.48642 v -31.24548 h -29.35961 v 31.24548 h -8.48643 V 75.216441 h 8.48643 v 25.030669 h 29.35961 V 75.216441 h 8.48642 z m 20.5303,0 h -8.05782 V 91.160637 h 8.05782 z m 0.55719,-55.890411 h -9.1722 v -8.357845 h 9.1722 z m 19.58736,55.890411 h -8.05782 V 72.344771 h 8.05782 z m 20.31599,0 H 447.3471 V 72.344771 h 8.05782 z m 38.57467,-11.78671 v -13.28683 q -2.87167,0.25717 -7.28633,0.72864 -4.37179,0.4286 -7.07202,1.24296 -3.21455,0.98579 -5.31473,3.04311 -2.10018,2.01445 -2.10018,5.65762 0,4.11463 2.31448,6.21481 2.31448,2.10017 6.772,2.10017 3.81461,0 6.90058,-1.62871 3.08597,-1.67157 5.7862,-4.07177 z m 0,6.68628 q -0.9858,0.72863 -2.65737,2.05731 -1.6287,1.28583 -3.17169,2.05732 -2.14304,1.11438 -4.15749,1.71443 -1.9716,0.60005 -5.5719,0.60005 -2.95739,0 -5.61476,-1.11438 -2.65736,-1.11438 -4.67182,-3.12883 -1.92873,-1.9716 -3.08597,-4.84327 -1.15724,-2.91453 -1.15724,-6.12908 0,-4.97185 2.10018,-8.44357 2.10017,-3.51458 6.64341,-5.5719 4.02891,-1.84301 9.51509,-2.52878 5.48617,-0.72863 11.82956,-1.07152 v -1.54299 q 0,-2.8288 -0.85721,-4.54323 -0.85722,-1.757295 -2.40021,-2.700231 -1.54298,-0.985797 -3.77174,-1.285822 -2.22876,-0.342886 -4.5861,-0.342886 -2.78595,0 -6.55769,0.857215 -3.77175,0.814354 -7.5435,2.400204 h -0.47146 v -8.186405 q 2.22876,-0.642911 6.38625,-1.414404 4.15749,-0.771494 8.22926,-0.771494 4.92899,0 8.31498,0.771494 3.386,0.771493 6.08623,2.785948 2.6145,1.971594 3.90033,5.100428 1.28582,3.128833 1.28582,7.629213 v 32.74561 h -8.01496 z m 44.70376,-34.117152 h -0.42861 q -0.90007,-0.257165 -1.92873,-0.300026 -0.9858,-0.08572 -2.4002,-0.08572 -3.25742,0 -6.47198,1.414409 -3.21455,1.4144 -6.08622,4.20035 v 33.98857 h -8.05782 V 91.160637 h 8.05782 v 7.114884 q 4.41466,-3.900328 7.67207,-5.486175 3.30028,-1.628709 6.38625,-1.628709 1.24296,0 1.84301,0.08572 0.64292,0.04286 1.41441,0.171443 z m 43.8894,-8.657871 -25.75931,65.534073 h -8.61501 l 8.57215,-19.9731 -17.40146,-45.560973 h 8.70073 l 13.07253,35.445833 13.02966,-35.445833 z M 688.31019,75.216441 672.28027,139.03609 h -9.55795 l -12.9868,-52.975881 -12.68678,52.975881 h -9.34365 L 611.37515,75.216441 h 8.70073 l 12.85823,53.061599 12.7725,-53.061599 h 8.61501 l 12.90108,53.575929 12.7725,-53.575929 z m 30.43112,52.032939 v -13.28683 q -2.87167,0.25717 -7.28633,0.72864 -4.37179,0.4286 -7.07202,1.24296 -3.21456,0.98579 -5.31473,3.04311 -2.10018,2.01445 -2.10018,5.65762 0,4.11463 2.31448,6.21481 2.31448,2.10017 6.772,2.10017 3.81461,0 6.90058,-1.62871 3.08597,-1.67157 5.7862,-4.07177 z m 0,6.68628 q -0.9858,0.72863 -2.65737,2.05731 -1.62871,1.28583 -3.17169,2.05732 -2.14304,1.11438 -4.15749,1.71443 -1.9716,0.60005 -5.5719,0.60005 -2.95739,0 -5.61476,-1.11438 -2.65736,-1.11438 -4.67182,-3.12883 -1.92873,-1.9716 -3.08597,-4.84327 -1.15724,-2.91453 -1.15724,-6.12908 0,-4.97185 2.10017,-8.44357 2.10018,-3.51458 6.64342,-5.5719 4.02891,-1.84301 9.51508,-2.52878 5.48618,-0.72863 11.82957,-1.07152 v -1.54299 q 0,-2.8288 -0.85722,-4.54323 -0.85721,-1.757295 -2.4002,-2.700231 -1.54298,-0.985797 -3.77174,-1.285822 -2.22876,-0.342886 -4.5861,-0.342886 -2.78595,0 -6.5577,0.857215 -3.77174,0.814354 -7.54349,2.400204 h -0.47146 v -8.186405 q 2.22875,-0.642911 6.38625,-1.414404 4.15749,-0.771494 8.22926,-0.771494 4.92898,0 8.31498,0.771494 3.386,0.771493 6.08623,2.785948 2.6145,1.971594 3.90033,5.100428 1.28582,3.128833 1.28582,7.629213 v 32.74561 h -8.01496 z m 56.19045,5.10043 h -8.05782 v -4.88613 q -1.88587,1.58585 -3.25741,2.61451 -1.37155,1.02866 -3.21456,1.88587 -1.71443,0.81435 -3.55744,1.24296 -1.84301,0.47147 -4.28608,0.47147 -3.90032,0 -7.24346,-1.62871 -3.30028,-1.62871 -5.61476,-4.75754 -2.35734,-3.1717 -3.64316,-7.80066 -1.28582,-4.67182 -1.28582,-10.71518 0,-6.30053 1.6287,-10.88663 1.62871,-4.62896 4.50038,-8.05782 2.61451,-3.128834 6.30053,-4.886124 3.72889,-1.800152 7.80066,-1.800152 3.6003,0 6.25766,0.814355 2.65737,0.771493 5.61476,2.443062 v -20.7446 h 8.05782 z m -8.05782,-11.65812 V 99.775647 q -3.00025,-1.457265 -5.40045,-2.014455 -2.35734,-0.55719 -5.14329,-0.55719 -6.21481,0 -9.72939,4.671818 -3.51458,4.62896 -3.51458,13.41542 0,8.44356 2.70023,12.94394 2.70022,4.45752 8.65787,4.45752 3.17169,0 6.38625,-1.41441 3.21455,-1.45726 6.04336,-3.90032 z m 32.65987,12.81536 q -4.8004,0 -9.00076,-1.28583 -4.15749,-1.28582 -6.90058,-2.74308 v -9.04362 h 0.42861 q 1.02866,0.81435 2.4002,1.80015 1.41441,0.9858 3.72889,2.05732 2.05731,0.94293 4.50037,1.67157 2.48593,0.72863 5.14329,0.72863 1.92874,0 4.11464,-0.42861 2.18589,-0.47147 3.25741,-1.15724 1.50013,-0.9858 2.14304,-2.10017 0.68577,-1.11438 0.68577,-3.34314 0,-2.87167 -1.58585,-4.32894 -1.54298,-1.45726 -5.52903,-2.44306 -1.54299,-0.38575 -4.02891,-0.90008 -2.48593,-0.51432 -4.5861,-1.11438 -5.48618,-1.58584 -7.9721,-4.88612 -2.48592,-3.34314 -2.48592,-8.05782 0,-6.471971 4.88612,-10.543742 4.88613,-4.071771 12.98681,-4.071771 3.98605,0 8.01496,0.985798 4.02891,0.985797 6.77199,2.485923 v 8.615012 h -0.4286 q -3.08598,-2.443065 -6.90058,-3.85747 -3.77175,-1.414404 -7.62922,-1.414404 -3.98605,0 -6.72913,1.671568 -2.74309,1.671566 -2.74309,5.057566 0,3.00025 1.62871,4.50038 1.62871,1.45727 5.22901,2.4002 1.80015,0.47147 3.98605,0.94294 2.22876,0.42861 4.67182,1.02866 5.31473,1.32868 7.9721,4.41465 2.70022,3.08598 2.70022,8.40071 0,3.08597 -1.24296,5.87192 -1.2001,2.74309 -3.55744,4.71468 -2.57164,2.14304 -5.82906,3.25742 -3.21456,1.11438 -8.10068,1.11438 z m 84.26421,-49.032693 -12.12959,47.875453 h -7.45777 l -11.70098,-36.9031 -11.61526,36.9031 h -7.41491 L 821.22134,91.160637 h 8.4007 l 8.44357,37.074543 11.3581,-37.074543 h 6.64341 l 11.65812,37.074543 7.9721,-37.074543 z m 46.5039,23.959153 q 0,12.08673 -5.82907,18.68729 -5.82906,6.55769 -15.51558,6.55769 -9.98656,0 -15.7299,-6.772 -5.70048,-6.81486 -5.70048,-18.47298 0,-12.00101 5.87193,-18.64442 5.91478,-6.643416 15.55845,-6.643416 9.68652,0 15.51558,6.643416 5.82907,6.60055 5.82907,18.64442 z m -8.31499,0 q 0,-9.30078 -3.386,-13.80116 -3.386,-4.543235 -9.64366,-4.543235 -6.30053,0 -9.72939,4.543235 -3.386,4.50038 -3.386,13.80116 0,9.00076 3.386,13.67258 3.42886,4.62896 9.72939,4.62896 6.2148,0 9.6008,-4.54324 3.42886,-4.5861 3.42886,-13.7583 z m 41.96072,-15.301282 h -0.42861 q -0.90008,-0.257165 -1.92873,-0.300026 -0.9858,-0.08572 -2.40021,-0.08572 -3.25741,0 -6.47197,1.414409 -3.21455,1.4144 -6.08622,4.20035 v 33.98857 h -8.05782 V 91.160637 h 8.05782 v 7.114884 q 4.41465,-3.900328 7.67207,-5.486175 3.30028,-1.628709 6.38625,-1.628709 1.24296,0 1.84301,0.08572 0.64291,0.04286 1.41441,0.171443 z m 20.74459,40.160512 q -6.60055,0 -10.28657,-3.72888 -3.68603,-3.77175 -3.68603,-11.87243 V 97.846913 h -5.44331 v -6.686276 h 5.44331 V 77.402339 h 8.05782 v 13.758298 h 14.82982 v 6.686276 h -14.82982 v 22.759057 q 0,3.64316 0.12858,5.61475 0.12859,1.9716 0.9858,3.68603 0.72863,1.50012 2.35734,2.27162 1.62871,0.72863 4.41466,0.72863 1.97159,0 3.8146,-0.55719 1.84302,-0.60005 2.65737,-0.9858 h 0.47147 v 7.24347 q -2.27162,0.64291 -4.62896,0.9858 -2.31448,0.38574 -4.28608,0.38574 z m 52.50446,-0.94293 h -8.0579 v -27.25944 q 0,-3.30027 -0.3428,-6.12908 -0.3001,-2.87167 -1.2001,-4.5861 -0.9858,-1.800152 -2.7431,-2.657367 -1.7573,-0.900076 -4.8004,-0.900076 -3.0003,0 -6.2148,1.628709 -3.1717,1.585844 -6.2148,4.157494 v 35.74586 h -8.05787 V 72.344771 h 8.05787 V 96.47537 q 3.6003,-3.214556 7.1148,-4.928986 3.5146,-1.71443 7.4149,-1.71443 7.0721,0 11.0581,4.671821 3.9861,4.628961 3.9861,13.458275 z"
     id="text11"
     aria-label="Hillary Wadsworth" />
  <text
     xml:space="preserve"
     style="font-size:144px;fill:#ff0000;stroke-width:0.75"
     x="-875.4032"
     y="614.14062"
     id="text11-1"><tspan
       sodipodi:role="line"
       id="tspan11-8"
       style="font-style:normal;font-variant:normal;font-weight:normal;font-stretch:normal;font-family:'.Sana PUA';-inkscape-font-specification:'.Sana PUA';stroke-width:0.75"
       x="-875.4032"
       y="614.14062" /></text>
  <path
     style="font-size:66.8776px;font-family:Tahoma;-inkscape-font-specification:Tahoma;fill:#ffffff;stroke-width:0.696641"
     d="m 419.23473,224.46573 q -4.76765,0 -8.78422,-1.6001 -3.98392,-1.6001 -6.89022,-4.76764 -2.9063,-3.16754 -4.5064,-7.90253 -1.6001,-4.73498 -1.6001,-10.87414 0,-6.1065 1.53479,-10.64555 1.56744,-4.53906 4.53905,-7.90253 2.90631,-3.26551 6.89023,-4.96358 3.98391,-1.73071 8.91483,-1.73071 2.44913,0 4.57171,0.3592 2.15524,0.35921 3.98392,0.91434 1.56745,0.48983 3.2002,1.2409 1.66541,0.71841 3.26551,1.6001 v 7.80456 h -0.52248 q -0.84904,-0.78372 -2.18789,-1.894 -1.33886,-1.11027 -3.26551,-2.18789 -1.86134,-1.0123 -4.04923,-1.6654 -2.18789,-0.65311 -5.06154,-0.65311 -3.10223,0 -5.87791,1.27355 -2.77568,1.27355 -4.86561,3.75534 -2.05727,2.48178 -3.2002,6.23712 -1.14293,3.75533 -1.14293,8.45766 0,4.99623 1.20824,8.62094 1.20824,3.59206 3.29817,6.07385 2.02461,2.41647 4.76764,3.65737 2.74302,1.20823 5.8126,1.20823 2.80834,0 5.19216,-0.68575 2.38382,-0.68576 4.24516,-1.73072 1.79603,-1.01231 3.10223,-2.05727 1.3062,-1.07762 2.05727,-1.82869 h 0.48983 v 7.7066 q -1.6001,0.75107 -3.03692,1.43683 -1.40417,0.68575 -3.42879,1.33885 -2.12258,0.68576 -3.95126,1.04497 -1.79603,0.3592 -4.70233,0.3592 z m 50.68068,-19.10322 q 0,9.20873 -4.44109,14.23762 -4.44109,4.99622 -11.82114,4.99622 -7.60863,0 -11.98441,-5.1595 -4.34313,-5.19216 -4.34313,-14.07434 0,-9.14342 4.47375,-14.20496 4.5064,-5.06154 11.85379,-5.06154 7.38005,0 11.82114,5.06154 4.44109,5.02888 4.44109,14.20496 z m -6.33508,0 q 0,-7.08615 -2.57976,-10.51493 -2.57975,-3.46144 -7.34739,-3.46144 -4.8003,0 -7.4127,3.46144 -2.57975,3.42878 -2.57975,10.51493 0,6.85757 2.57975,10.41697 2.6124,3.52675 7.4127,3.52675 4.73499,0 7.31474,-3.46144 2.61241,-3.49409 2.61241,-10.48228 z m 41.04743,18.22154 h -6.13916 v -4.04923 q -2.84099,2.48178 -5.38808,3.78798 -2.5471,1.27355 -5.68199,1.27355 -2.38382,0 -4.5064,-0.78372 -2.08992,-0.78372 -3.65737,-2.48179 -1.56744,-1.69806 -2.44913,-4.27781 -0.84903,-2.57975 -0.84903,-6.26978 v -23.67493 h 6.13915 v 20.76863 q 0,2.9063 0.19593,4.83295 0.22859,1.894 0.97966,3.33082 0.75106,1.40417 2.02461,2.05727 1.3062,0.6531 3.72268,0.6531 2.2532,0 4.8003,-1.27354 2.54709,-1.27355 4.66967,-3.13489 v -27.23434 h 6.13916 z m 37.55334,0 h -6.13916 v -20.76863 q 0,-2.51445 -0.26124,-4.66968 -0.22858,-2.18789 -0.91434,-3.49409 -0.75107,-1.37152 -2.08993,-2.02462 -1.33885,-0.68576 -3.65736,-0.68576 -2.28586,0 -4.73499,1.2409 -2.41648,1.20823 -4.73499,3.16754 v 27.23434 h -6.13915 v -36.47573 h 6.13915 v 4.04923 q 2.74303,-2.44913 5.42075,-3.75533 2.67771,-1.30621 5.64932,-1.30621 5.38809,0 8.42502,3.55941 3.03692,3.52675 3.03692,10.25369 z m 18.48277,0.88168 q -3.65737,0 -6.85757,-0.97965 -3.16754,-0.97965 -5.25746,-2.08992 v -6.89023 h 0.32655 q 0.78372,0.62045 1.82868,1.37152 1.07762,0.75106 2.84099,1.56744 1.56745,0.71841 3.42879,1.27355 1.89399,0.55513 3.91861,0.55513 1.46948,0 3.13488,-0.32655 1.66541,-0.3592 2.48179,-0.88168 1.14293,-0.75107 1.63275,-1.6001 0.52249,-0.84903 0.52249,-2.5471 0,-2.18789 -1.20824,-3.29816 -1.17559,-1.11027 -4.21251,-1.86134 -1.17558,-0.2939 -3.06957,-0.68576 -1.894,-0.39186 -3.4941,-0.84903 -4.17985,-1.20824 -6.07384,-3.72268 -1.894,-2.54709 -1.894,-6.13915 0,-4.93092 3.72268,-8.03315 3.72268,-3.10223 9.89449,-3.10223 3.03692,0 6.1065,0.75106 3.06958,0.75107 5.1595,1.894 v 6.56367 h -0.32655 q -2.35116,-1.86134 -5.25747,-2.93896 -2.87364,-1.07762 -5.8126,-1.07762 -3.03692,0 -5.12685,1.27355 -2.08992,1.27355 -2.08992,3.8533 0,2.28586 1.24089,3.42878 1.24089,1.11028 3.98392,1.82869 1.37151,0.3592 3.03692,0.71841 1.69807,0.32655 3.55941,0.78372 4.04923,1.01231 6.07384,3.36347 2.05727,2.35117 2.05727,6.4004 0,2.35117 -0.947,4.47375 -0.91434,2.08992 -2.71037,3.59205 -1.9593,1.63276 -4.44109,2.48179 -2.44913,0.84903 -6.17181,0.84903 z m 35.82262,-0.0327 q -8.7189,0 -13.55186,-4.89826 -4.80029,-4.93092 -4.80029,-13.97638 0,-8.91483 4.66967,-14.1723 4.66968,-5.29013 12.213,-5.29013 3.39613,0 6.00854,0.97966 2.6124,0.97965 4.57171,3.06957 1.9593,2.08993 3.00427,5.12685 1.04496,3.00427 1.04496,7.38005 v 3.33082 h -25.27503 q 0,6.36774 3.20019,9.73121 3.2002,3.36347 8.84953,3.36347 2.02462,0 3.95127,-0.45717 1.9593,-0.45717 3.52674,-1.17558 1.66541,-0.75107 2.80834,-1.43682 1.14293,-0.71841 1.894,-1.33886 h 0.3592 v 6.69429 q -1.07762,0.42452 -2.67771,1.07762 -1.6001,0.62044 -2.87365,0.97965 -1.79603,0.48983 -3.26551,0.75107 -1.43682,0.26124 -3.65737,0.26124 z m 7.18412,-23.15245 q -0.0653,-2.48179 -0.58779,-4.27782 -0.52248,-1.79603 -1.50214,-3.03692 -1.07761,-1.37151 -2.77568,-2.08993 -1.66541,-0.71841 -4.14719,-0.71841 -2.44913,0 -4.17985,0.75107 -1.69807,0.71841 -3.10224,2.12258 -1.37151,1.43682 -2.08992,3.2002 -0.71841,1.73072 -0.91434,4.04923 z m 18.45012,22.30342 h -6.13915 v -50.81131 h 6.13915 z m 15.4785,0 h -6.13915 v -50.81131 h 6.13915 z m 39.02282,-18.22154 q 0,9.20873 -4.44109,14.23762 -4.44109,4.99622 -11.82114,4.99622 -7.60863,0 -11.98441,-5.1595 -4.34313,-5.19216 -4.34313,-14.07434 0,-9.14342 4.47375,-14.20496 4.5064,-5.06154 11.85379,-5.06154 7.38005,0 11.82114,5.06154 4.44109,5.02888 4.44109,14.20496 z m -6.33508,0 q 0,-7.08615 -2.57975,-10.51493 -2.57976,-3.46144 -7.3474,-3.46144 -4.80029,0 -7.4127,3.46144 -2.57975,3.42878 -2.57975,10.51493 0,6.85757 2.57975,10.41697 2.61241,3.52675 7.4127,3.52675 4.73499,0 7.31474,-3.46144 2.61241,-3.49409 2.61241,-10.48228 z m 31.96933,-11.65786 h -0.32655 q -0.68576,-0.19593 -1.46948,-0.22859 -0.75107,-0.0653 -1.82869,-0.0653 -2.48178,0 -4.93091,1.07762 -2.44914,1.07762 -4.63703,3.2002 v 25.89548 h -6.13915 v -36.47573 h 6.13915 v 5.42075 q 3.36348,-2.97162 5.84526,-4.17985 2.51444,-1.2409 4.86561,-1.2409 0.947,0 1.40417,0.0653 0.48982,0.0327 1.07762,0.13062 z m 68.41238,29.8794 h -8.3597 l -6.66164,-6.95554 q -3.33082,4.24516 -6.85757,6.1065 -3.49409,1.86134 -7.93518,1.86134 -6.59633,0 -10.9068,-3.95126 -4.27781,-3.98392 -4.27781,-10.41697 0,-2.80834 0.78372,-4.99623 0.78372,-2.18789 2.08992,-3.95126 1.27355,-1.69807 2.93896,-2.97162 1.66541,-1.3062 3.2002,-2.2532 -3.29816,-2.22054 -4.93092,-4.66967 -1.63275,-2.44913 -1.63275,-6.17181 0,-2.31851 0.91434,-4.27782 0.947,-1.99196 2.44913,-3.49409 1.56744,-1.53479 4.04923,-2.51444 2.51444,-0.97965 5.48605,-0.97965 5.42075,0 8.84953,2.87364 3.42878,2.84099 3.42878,7.21677 0,1.6001 -0.42451,3.33082 -0.39186,1.69807 -1.46948,3.29817 -1.07762,1.60009 -2.84099,3.00426 -1.73072,1.40417 -4.63702,2.44913 l 11.49458,11.82114 q 0.45717,-2.67771 0.55514,-5.8126 0.098,-3.16754 0.098,-8.22908 h 6.36775 v 3.13489 q 0,3.13488 -0.81638,7.08615 -0.78372,3.91861 -2.61241,7.44536 z m -17.86233,-9.82918 -15.02134,-15.38055 q -0.81638,0.52249 -1.63275,1.2409 -0.81638,0.71841 -1.79603,2.15523 -0.78372,1.14293 -1.40417,3.00427 -0.58779,1.82868 -0.58779,3.88595 0,4.63703 2.74302,7.64129 2.77569,2.97161 7.47802,2.97161 3.13488,0 5.64933,-1.3062 2.51444,-1.33886 4.57171,-4.2125 z m -11.95176,-19.95226 q 1.82868,-0.62044 3.00427,-1.66541 1.20823,-1.04496 1.86133,-2.28585 0.5878,-1.14293 0.88169,-2.41648 0.2939,-1.27355 0.2939,-2.74302 0,-3.16755 -1.86134,-4.89827 -1.82869,-1.73071 -4.27782,-1.73071 -2.9063,0 -4.57171,1.9593 -1.66541,1.9593 -1.66541,4.89826 0,1.30621 0.22859,2.2532 0.26124,0.91434 1.04496,2.15524 0.68576,1.01231 1.894,2.15523 1.24089,1.14293 3.16754,2.31851 z m 72.52693,30.66312 q -4.76765,0 -8.78422,-1.6001 -3.98392,-1.6001 -6.89022,-4.76764 -2.9063,-3.16754 -4.5064,-7.90253 -1.6001,-4.73498 -1.6001,-10.87414 0,-6.1065 1.53479,-10.64555 1.56744,-4.53906 4.53905,-7.90253 2.9063,-3.26551 6.89022,-4.96358 3.98392,-1.73071 8.91484,-1.73071 2.44913,0 4.57171,0.3592 2.15524,0.35921 3.98392,0.91434 1.56745,0.48983 3.2002,1.2409 1.66541,0.71841 3.26551,1.6001 v 7.80456 h -0.52248 q -0.84904,-0.78372 -2.18789,-1.894 -1.33886,-1.11027 -3.26551,-2.18789 -1.86134,-1.0123 -4.04923,-1.6654 -2.18789,-0.65311 -5.06154,-0.65311 -3.10223,0 -5.87791,1.27355 -2.77568,1.27355 -4.86561,3.75534 -2.05727,2.48178 -3.2002,6.23712 -1.14293,3.75533 -1.14293,8.45766 0,4.99623 1.20824,8.62094 1.20824,3.59206 3.29817,6.07385 2.02461,2.41647 4.76764,3.65737 2.74302,1.20823 5.8126,1.20823 2.80834,0 5.19216,-0.68575 2.38382,-0.68576 4.24516,-1.73072 1.79603,-1.01231 3.10223,-2.05727 1.3062,-1.07762 2.05727,-1.82869 h 0.48983 v 7.7066 q -1.6001,0.75107 -3.03692,1.43683 -1.40417,0.68575 -3.42879,1.33885 -2.12258,0.68576 -3.95126,1.04497 -1.79603,0.3592 -4.70233,0.3592 z m 50.6807,-19.10322 q 0,9.20873 -4.44109,14.23762 -4.44109,4.99622 -11.82114,4.99622 -7.60863,0 -11.98441,-5.1595 -4.34313,-5.19216 -4.34313,-14.07434 0,-9.14342 4.47375,-14.20496 4.5064,-5.06154 11.85379,-5.06154 7.38005,0 11.82114,5.06154 4.44109,5.02888 4.44109,14.20496 z m -6.33508,0 q 0,-7.08615 -2.57975,-10.51493 -2.57976,-3.46144 -7.3474,-3.46144 -4.80029,0 -7.4127,3.46144 -2.57975,3.42878 -2.57975,10.51493 0,6.85757 2.57975,10.41697 2.61241,3.52675 7.4127,3.52675 4.73499,0 7.31474,-3.46144 2.61241,-3.49409 2.61241,-10.48228 z m 33.01427,9.24139 v -10.12308 q -2.18789,0.19593 -5.55136,0.55514 -3.33082,0.32655 -5.38809,0.947 -2.44913,0.75106 -4.04923,2.31851 -1.6001,1.53479 -1.6001,4.31047 0,3.13489 1.76338,4.73499 1.76337,1.60009 5.1595,1.60009 2.9063,0 5.25747,-1.24089 2.35116,-1.27355 4.40843,-3.10223 z m 0,5.09419 q -0.75106,0.55514 -2.02461,1.56744 -1.24089,0.97966 -2.41648,1.56745 -1.63275,0.84903 -3.16754,1.3062 -1.50213,0.45717 -4.24516,0.45717 -2.2532,0 -4.27782,-0.84903 -2.02461,-0.84903 -3.5594,-2.38382 -1.46948,-1.50213 -2.35116,-3.69002 -0.88169,-2.22055 -0.88169,-4.66968 0,-3.78799 1.6001,-6.43305 1.6001,-2.67772 5.06153,-4.24516 3.06958,-1.40417 7.24943,-1.92665 4.17985,-0.55514 9.0128,-0.81638 v -1.17558 q 0,-2.15524 -0.6531,-3.46144 -0.6531,-1.33886 -1.82868,-2.05727 -1.17559,-0.75107 -2.87365,-0.97965 -1.69806,-0.26124 -3.49409,-0.26124 -2.12258,0 -4.99623,0.6531 -2.87365,0.62045 -5.74729,1.82868 h -0.35921 v -6.23712 q 1.69806,-0.48982 4.86561,-1.07761 3.16754,-0.58779 6.26977,-0.58779 3.75534,0 6.33509,0.58779 2.57975,0.58779 4.63702,2.12258 1.99196,1.50213 2.97161,3.88595 0.97965,2.38382 0.97965,5.81261 v 24.94848 h -6.1065 z m 29.22631,4.70233 q -3.75534,0 -6.89022,-1.14293 -3.13489,-1.17558 -5.38809,-3.52674 -2.2532,-2.35117 -3.4941,-5.91057 -1.24089,-3.59206 -1.24089,-8.42501 0,-4.8003 1.27355,-8.29439 1.3062,-3.4941 3.46144,-5.87792 2.15523,-2.38382 5.35543,-3.65737 3.23285,-1.3062 6.92288,-1.3062 3.00426,0 5.77995,0.84903 2.80833,0.84903 4.99622,1.95931 v 6.89022 h -0.3592 q -0.6531,-0.55514 -1.69807,-1.27355 -1.0123,-0.71841 -2.48178,-1.46948 -1.27355,-0.6531 -3.00427,-1.14293 -1.73072,-0.48982 -3.33082,-0.48982 -4.76764,0 -7.67394,3.62471 -2.87365,3.59206 -2.87365,10.18839 0,6.4657 2.77568,10.09042 2.80834,3.59205 7.77191,3.59205 3.00427,0 5.71464,-1.24089 2.71037,-1.24089 4.8003,-3.2002 h 0.3592 v 6.89023 q -0.91434,0.42451 -2.28585,1.04496 -1.37152,0.58779 -2.48179,0.88169 -1.56744,0.45717 -2.80834,0.68575 -1.24089,0.26124 -3.20019,0.26124 z m 45.03134,-0.81637 h -6.13915 v -20.76863 q 0,-2.51445 -0.26125,-4.66968 -0.22858,-2.18789 -0.91434,-3.49409 -0.75106,-1.37152 -2.08992,-2.02462 -1.33886,-0.68576 -3.65737,-0.68576 -2.28586,0 -4.73499,1.2409 -2.41647,1.20823 -4.73498,3.16754 v 27.23434 h -6.13916 v -50.81131 h 6.13916 v 18.38481 q 2.74302,-2.44913 5.42074,-3.75533 2.67772,-1.30621 5.64933,-1.30621 5.38809,0 8.42501,3.55941 3.03692,3.52675 3.03692,10.25369 z"
     id="text12"
     aria-label="Counsellor &amp; Coach" />
</svg>
